<svg width="28" height="41" viewBox="0 0 28 41" xmlns="http://www.w3.org/2000/svg">
    <path d="M10.588 2.282a1.517 1.517 0 0 0-1.5 1.512c-.006.834.706 1.534 1.544 1.52a1.522 1.522 0 0 0 1.477-1.538 1.524 1.524 0 0 0-1.52-1.494zM6.212 39.446h8.792c-.332-1.27-1.425-2.19-2.705-2.23a53.632 53.632 0 0 0-3.396 0c-1.303.04-2.492 1.057-2.69 2.23zm5.167-9.076h.482c1.907 0 3.813.002 5.72 0 1.239-.002 2.09-.773 2.094-1.891.004-1.12-.848-1.903-2.08-1.904-1.922-.002-3.844-.001-5.766 0-.151 0-.302.014-.45.02v3.775zm-1.555-9.11c-2.111 0-4.174-.002-6.236 0-1.224.002-2.077.796-2.066 1.918.01 1.1.858 1.875 2.06 1.877 1.938.003 3.877.001 5.815 0 .137 0 .273-.015.427-.024V21.26zM1.55 11.408c-.273 2.032 1.032 3.07 2.713 3.042 4.302-.07 8.605-.022 12.908-.024 1.75 0 2.779-1.264 2.446-3.018H1.55zm8.27 24.284v-3.803h-.716c-1.844 0-3.688-.002-5.532 0-1.198.002-2.045.785-2.05 1.887-.006 1.103.835 1.893 2.03 1.909.094.001.189-.005.283.006.418.046.707.355.707.751.001.394-.288.705-.704.756-1.89.233-3.665-1.216-3.82-3.121-.16-1.948 1.343-3.667 3.287-3.697 1.986-.032 3.972-.009 5.958-.01h.546v-3.796H9.3c-1.986 0-3.972.016-5.957-.007-1.7-.02-3.085-1.295-3.314-3-.216-1.598.798-3.183 2.373-3.658.37-.111.773-.157 1.162-.16 1.907-.016 3.814-.008 5.72-.008h.533v-3.796h-.492c-1.78 0-3.562.003-5.342 0C1.62 15.94.013 14.32.008 11.947v-.949c0-.914.206-1.126 1.1-1.126h18.911c.989 0 1.179.186 1.168 1.198-.006.583.018 1.177-.078 1.748-.308 1.822-1.833 3.105-3.683 3.123-1.828.017-3.656.004-5.484.004h-.552v3.74c.024.015.05.044.075.044 2.394-.025 4.8.09 7.179-.111 3.937-.333 7.311-3.826 7.754-7.78.558-4.989-2.524-9.222-7.428-10.168-1.95-.376-3.817-.056-5.483.754.021.726.152 1.395.038 2.017-.322 1.755-2.134 2.784-3.823 2.253a3.054 3.054 0 0 1-1.91-4.043c.659-1.647 2.594-2.373 4.167-1.537.29.153.495.14.771 0 6.487-3.257 14.336.974 15.191 8.183.759 6.397-4.065 11.906-10.481 11.96-1.844.015-3.688.003-5.532.003h-.53v3.796h.5c1.985 0 3.97-.012 5.956.005a3.395 3.395 0 0 1 3.25 2.562c.379 1.54-.295 3.146-1.71 3.847-.504.25-1.11.386-1.675.4-1.921.048-3.845.019-5.767.019h-.545v3.753c.537.045 1.072.05 1.593.14 2.016.347 3.605 2.208 3.665 4.254.019.665-.259.961-.927.962-3.42.003-6.84.003-10.26 0-.641-.001-.92-.298-.907-.935.046-2.29 1.986-4.268 4.294-4.37.312-.013.625-.001.975-.001z" fill="#3EECC4" fill-rule="evenodd"/>
</svg>
