<svg width="37" height="42" viewBox="0 0 37 42" xmlns="http://www.w3.org/2000/svg">
    <path d="M34.533 3.707c.01-.663-.54-1.23-1.205-1.245a1.248 1.248 0 0 0-1.258 1.192 1.245 1.245 0 0 0 1.225 1.266 1.247 1.247 0 0 0 1.238-1.213zM18.497 2.462a1.245 1.245 0 0 0-1.226 1.224 1.245 1.245 0 0 0 1.217 1.234 1.245 1.245 0 0 0 1.246-1.245 1.245 1.245 0 0 0-1.237-1.213zM3.719 4.92a1.246 1.246 0 0 0 1.217-1.234 1.245 1.245 0 0 0-1.227-1.224 1.245 1.245 0 0 0-1.237 1.254A1.245 1.245 0 0 0 3.72 4.92zm30.814 8.614c0-.663-.557-1.223-1.222-1.228a1.244 1.244 0 0 0-1.24 1.209 1.244 1.244 0 0 0 1.241 1.249 1.247 1.247 0 0 0 1.221-1.23zm-16.046-1.228c-.665.008-1.219.57-1.216 1.234a1.245 1.245 0 0 0 1.226 1.224 1.246 1.246 0 0 0 1.238-1.255 1.246 1.246 0 0 0-1.248-1.203zM3.71 14.764a1.246 1.246 0 0 0 1.227-1.224 1.245 1.245 0 0 0-1.217-1.234 1.243 1.243 0 0 0-1.247 1.244 1.246 1.246 0 0 0 1.237 1.214zm13.576 22.23c-.005.106-.014.226-.014.347 0 .367-.022.737.011 1.101.055.605.584 1.077 1.183 1.095.615.02 1.192-.438 1.25-1.061.048-.497.01-1 .01-1.482h-2.44zm-3.952-28.38c.966.643 1.86 1.246 2.767 1.83.091.06.27.035.386-.008.433-.159.844-.398 1.288-.503 1.07-.255 2.054.024 2.956.643l2.947-1.963c-.976-.65-1.892-1.265-2.817-1.865-.072-.047-.234-.023-.318.028-1.36.815-2.712.816-4.072.003-.086-.051-.248-.08-.32-.033-.925.6-1.84 1.217-2.817 1.868zm3.937 12.564c0-1.332-.008-2.575.006-3.817.003-.257-.079-.373-.312-.482-1.555-.726-2.367-2.267-2.096-3.964.036-.226-.027-.344-.213-.466a270.679 270.679 0 0 1-3.312-2.203c-.172-.117-.29-.126-.469-.006-1.11.75-2.233 1.481-3.338 2.238-.11.075-.178.277-.186.425-.02.392.045.792-.005 1.178-.038.29.035.44.27.597 2.815 1.888 5.625 3.785 8.436 5.68l1.219.82zm2.483-.044c.068-.024.082-.026.092-.033 3.22-2.17 6.442-4.338 9.655-6.518.1-.068.153-.261.159-.4.018-.419-.022-.841.01-1.26.017-.218-.016-.345-.207-.47-1.11-.725-2.215-1.459-3.311-2.204-.194-.132-.322-.116-.506.008-1.087.735-2.179 1.464-3.278 2.181-.2.13-.266.255-.226.498a3.671 3.671 0 0 1-2.077 3.946c-.108.05-.217.097-.31.138v4.114zM18.501 34.57c2.719.002 4.937-2.212 4.935-4.924-.003-2.696-2.204-4.895-4.91-4.908-2.721-.013-4.951 2.194-4.956 4.903-.004 2.712 2.212 4.928 4.93 4.93zM3.21 0h.986c.064.024.125.056.19.07 2.025.418 3.266 2.195 2.95 4.244-.035.227.033.344.217.464 1.099.72 2.192 1.447 3.28 2.185.199.135.34.137.54 0 1.075-.73 2.157-1.45 3.245-2.16.21-.137.282-.267.244-.53-.209-1.414.233-2.617 1.38-3.465.51-.376 1.173-.545 1.767-.808h.986c.064.024.125.056.19.07 2.025.418 3.266 2.195 2.95 4.244-.035.227.033.344.217.464 1.099.72 2.192 1.447 3.28 2.185.199.135.34.137.54 0 1.075-.73 2.157-1.45 3.245-2.16.21-.137.282-.267.244-.53-.209-1.414.233-2.617 1.38-3.465.51-.376 1.173-.545 1.767-.808h.986c.077.025.152.059.23.075 2.023.417 3.29 2.323 2.896 4.362-.376 1.95-2.315 3.26-4.306 2.86-.537-.107-1.043-.371-1.627-.587l-2.856 1.904c.913.607 1.774 1.161 2.611 1.749.256.18.421.164.68.007a3.656 3.656 0 0 1 4.376.448 3.661 3.661 0 0 1 .813 4.351c-.736 1.479-2.344 2.308-3.96 1.98-.55-.113-1.07-.373-1.663-.587l-9.385 6.335c.042.047.056.072.078.084.095.053.194.1.29.154 2.479 1.416 3.855 3.542 3.911 6.396.053 2.7-1.14 4.815-3.387 6.322-.22.148-.307.293-.3.556.02.656.016 1.312.003 1.968a3.682 3.682 0 0 1-2.46 3.405c-.242.087-.495.146-.743.218h-.986c-.09-.028-.18-.061-.27-.082-1.59-.363-2.743-1.6-2.907-3.213-.075-.744-.038-1.502-.023-2.253.006-.29-.076-.455-.332-.62-3.674-2.355-4.48-7.396-1.742-10.793.724-.898 1.619-1.58 2.66-2.09-.037-.05-.053-.092-.083-.112-3.071-2.074-6.143-4.149-9.222-6.212-.087-.058-.265-.02-.387.018-.58.183-1.145.492-1.736.555-1.584.168-3.088-.802-3.69-2.267a3.69 3.69 0 0 1 1.034-4.207 3.667 3.667 0 0 1 4.32-.327c.216.134.362.153.576.005.788-.544 1.59-1.067 2.386-1.6.082-.055.153-.127.253-.211-.894-.595-1.754-1.154-2.597-1.736-.235-.163-.394-.162-.644-.01A3.687 3.687 0 0 1 .613 5.714C-.471 4.073-.09 1.864 1.539.73 2.03.39 2.65.238 3.211 0z" fill="#3EECC4" fill-rule="evenodd"/>
</svg>
