<svg width="22" height="20" viewBox="0 0 22 20" xmlns="http://www.w3.org/2000/svg" xmlns:xlink="http://www.w3.org/1999/xlink">
    <defs>
        <filter x="-46.7%" y="-41.1%" width="193.3%" height="215.2%" filterUnits="objectBoundingBox" id="a">
            <feOffset dy="2" in="SourceAlpha" result="shadowOffsetOuter1"/>
            <feGaussianBlur stdDeviation="2" in="shadowOffsetOuter1" result="shadowBlurOuter1"/>
            <feColorMatrix values="0 0 0 0 0 0 0 0 0 0 0 0 0 0 0 0 0 0 0.5 0" in="shadowBlurOuter1"/>
        </filter>
        <path d="M18.476 9.065c.803 0 1.514.308 2.123.903.038.034.07.052.112.052.015 0 .03-.001.048-.006a6.05 6.05 0 0 0 1.603-.58l.228-.126c-.223.712-.67 1.263-1.304 1.67A5.923 5.923 0 0 0 23 10.52c-.11.167-.22.322-.348.471-.325.402-.7.758-1.122 1.062l-.052.098c.014.453-.007.907-.068 1.36a9.117 9.117 0 0 1-2.486 5.151 8.273 8.273 0 0 1-4.238 2.355 9.541 9.541 0 0 1-1.712.2l-.277.004a8.6 8.6 0 0 1-4.623-1.324L8 19.85c.243.026.483.039.722.039.81 0 1.592-.152 2.353-.458a6.095 6.095 0 0 0 1.465-.856c-1.59-.052-2.58-1.2-2.837-2.13a2.955 2.955 0 0 0 .758.05l-.892-.897a3.118 3.118 0 0 1-.487-.617 2.989 2.989 0 0 1-.441-1.63c.413.217.837.342 1.292.364l-.357-.36a2.98 2.98 0 0 1-.82-1.498 3.02 3.02 0 0 1 .35-2.222l.168.196.023.025-.191-.221 1.203 1.208c1.427 1.196 3.123 1.864 5.1 2.002l-.033-.23-.016-.109a2.978 2.978 0 0 1 .469-2.004c.493-.77 1.192-1.246 2.089-1.39.19-.031.377-.047.558-.047z" id="b"/>
    </defs>
    <g transform="translate(-4.9 -7)" fill="none" fill-rule="evenodd">
        <use fill="#000" filter="url(#a)" xlink:href="#b"/>
        <use fill="#FFF" xlink:href="#b"/>
    </g>
</svg>
