<svg width="37" height="35" viewBox="0 0 37 35" xmlns="http://www.w3.org/2000/svg">
    <path d="M19.175 30.757h7.176l-.814-.685.918-.813 2.158 2.131-2.205 2.165-.793-.873.726-.555-.077-.11H19.17c-.233 1.07-.807 1.929-1.792 2.491-.806.461-1.674.592-2.594.418-1.75-.332-3.01-1.92-2.942-3.719.066-1.763 1.497-3.253 3.328-3.43 1.762-.172 3.557.916 4.004 2.98zm13.397-2.998c2.036.005 3.693 1.635 3.688 3.631-.005 1.993-1.672 3.615-3.71 3.61-2.036-.005-3.695-1.638-3.69-3.632.005-1.991 1.674-3.614 3.712-3.61zM13.245 14.022c1.836.202 3.225 1.676 3.28 3.437a3.613 3.613 0 0 1-2.998 3.673c-2.024.344-3.574-.7-4.308-2.898-2.023-.172-3.939.05-5.593 1.358-1.994 1.578-2.902 4.218-2.14 6.634.808 2.559 2.608 4.082 5.321 4.498.66.101 1.341.07 2.013.1l.054-.095-.807-.624c.382-.35.658-.605.899-.827l2.174 2.136-2.175 2.138-.762-.822.708-.733h-1.2C3.941 31.98.855 29.47.134 25.836c-.785-3.958 1.96-7.925 6.024-8.683.51-.095 1.035-.123 1.555-.148.495-.025.992-.006 1.514-.006.466-2.123 2.301-3.167 4.018-2.978zm11.93-11.014h.398c1.187 0 2.373-.002 3.56 0 3.899.008 7.033 2.544 7.747 6.269.786 4.101-2.373 8.247-6.635 8.698-.422.045-.848.068-1.272.07l-4.585.003H19.28l.847.694-.925.81-1.079-1.05-1.103-1.074 2.21-2.142c.233.25.495.534.799.863l-.73.546.075.12c.09.01.181.028.272.028 3.21.001 6.422.012 9.633-.003 3.41-.016 6.235-2.603 6.458-5.888.226-3.33-2.24-6.239-5.665-6.682-.153-.02-.307-.05-.46-.05l-1.47-.002h-2.965c-.256 1.136-.87 2.021-1.936 2.576a3.713 3.713 0 0 1-2.549.337c-1.768-.373-2.997-1.973-2.894-3.759C17.9 1.63 19.36.168 21.175.014c1.791-.152 3.558.957 4 2.994zM8.073 2.995H15.2l-.73-.753.83-.786 2.214 2.165-2.218 2.177-.838-.864.753-.6-.06-.087H8.08C7.408 6.35 5.803 7.493 3.938 7.194 2.028 6.888.713 5.388.74 3.545.767 1.742 2.17.226 4.041.022c1.664-.183 3.54.792 4.031 2.973z" fill="#3EECC4" fill-rule="evenodd"/>
</svg>
