<svg width="16" height="15" viewBox="0 0 16 15" xmlns="http://www.w3.org/2000/svg">
    <path d="M10.313 1.213c.592.96 1.142 1.945 1.705 2.922 1.186 2.059 2.367 4.12 3.553 6.18.384.665.525 1.367.362 2.126-.283 1.323-1.445 2.255-2.838 2.26-1.51.004-3.022 0-4.532 0H2.92c-.91 0-1.675-.331-2.262-1.041a2.873 2.873 0 0 1-.63-1.446c-.006-.04-.019-.08-.028-.12v-.502c.08-.732.465-1.332.821-1.945.302-.52.6-1.041.9-1.562 1.257-2.187 2.516-4.372 3.77-6.56C5.948.725 6.608.224 7.516.045c1.03-.202 2.245.272 2.797 1.167zm-3.7.942L5.276 4.494 2.59 9.164c-.38.66-.773 1.314-1.13 1.987-.275.522-.223 1.055.096 1.55.322.5.802.705 1.383.704h5.047c1.682 0 3.364.006 5.046-.007.254-.001.527-.045.757-.147.862-.382 1.17-1.397.694-2.235-.52-.917-1.05-1.83-1.574-2.744C11.74 6.24 10.57 4.208 9.405 2.175c-.198-.347-.456-.62-.833-.768-.66-.259-1.506-.049-1.959.748zm1.392 8.18c.454.001.805.37.802.842a.811.811 0 0 1-.808.803.823.823 0 0 1 .006-1.645zm.099-5.816a.812.812 0 0 1 .71.74c.006.088 0 .178 0 .285l-.189 3.269c-.008.15-.002.304-.027.452a.6.6 0 0 1-.593.502c-.302.002-.565-.2-.6-.507-.046-.426-.061-.855-.088-1.282-.05-.82-.095-1.638-.151-2.457-.041-.602.388-1.068.938-1.002z" fill="#D24E4E" fill-rule="evenodd"/>
</svg>
