<svg width="24" height="25" viewBox="0 0 24 25" xmlns="http://www.w3.org/2000/svg">
    <g fill="none" fill-rule="evenodd">
        <path d="M24 .671H0v23.657h24z"/>
        <path d="M.96 12.186a.847.847 0 0 0-.853.841c0 .465.382.841.853.841h22.187a.847.847 0 0 0 .853-.841.847.847 0 0 0-.853-.841H.96zm7.611 7.073a.847.847 0 0 0-.853.841c0 .465.382.841.853.841l14.576.004a.847.847 0 0 0 .853-.84.847.847 0 0 0-.853-.842L8.57 19.259zM.96 4.896a.847.847 0 0 0-.853.841c0 .465.382.841.853.841h22.187a.847.847 0 0 0 .853-.84.847.847 0 0 0-.853-.842H.96z" fill="#231F20"/>
    </g>
</svg>
