<svg width="24" height="24" viewBox="0 0 24 24" xmlns="http://www.w3.org/2000/svg">
    <g fill="none" fill-rule="evenodd">
        <path d="M24 0H0v23.657h24z"/>
        <path d="M.96 11.514a.847.847 0 0 0-.853.842c0 .464.382.84.853.84h22.187a.847.847 0 0 0 .853-.84.847.847 0 0 0-.853-.842H.96zm7.611 7.074a.847.847 0 0 0-.853.84c0 .465.382.842.853.842l14.576.004a.847.847 0 0 0 .853-.841.847.847 0 0 0-.853-.841L8.57 18.588zM.96 4.224a.847.847 0 0 0-.853.842c0 .464.382.84.853.84h22.187a.847.847 0 0 0 .853-.84.847.847 0 0 0-.853-.842H.96z" fill="#FFF"/>
    </g>
</svg>
