<svg width="15" height="16" viewBox="0 0 15 16" xmlns="http://www.w3.org/2000/svg">
    <path d="M11.293 5.232c2.52 0 3.39 1.313 3.63 3.213l.027.246c.008.083.015.167.021.252l.015.257.01.263.004.268v.272l-.042 5.497h-3.116l.038-5.125-.001-.173-.008-.262-.01-.175a5.294 5.294 0 0 0-.008-.087l-.019-.172c-.107-.826-.455-1.54-1.559-1.54-1.42 0-1.793.97-1.87 2.09l-.01.194-.007.294-.039 4.956H5.227l.077-10.024h2.99l-.01 1.37h.046c.422-.784 1.445-1.614 2.963-1.614zm-7.944.244L3.273 15.5H.15L.227 5.476h3.122zM1.823.5c1.003 0 1.803.81 1.795 1.806A1.822 1.822 0 0 1 1.795 4.11c-.997 0-1.802-.81-1.795-1.805A1.827 1.827 0 0 1 1.823.5z" fill="#FFF" fill-rule="evenodd"/>
</svg>
