<svg id="Layer_1" data-name="Layer 1" xmlns="http://www.w3.org/2000/svg" xmlns:xlink="http://www.w3.org/1999/xlink" viewBox="0 0 953.59 232.68"><defs><style>.cls-1{fill:none;}.cls-2{fill:#3eecc4;}.cls-3{clip-path:url(#clip-path);}.cls-4{clip-path:url(#clip-path-2);}.cls-5{fill:#252526;}</style><clipPath id="clip-path" transform="translate(-206.81 -267.32)"><path class="cls-1" d="M903.23,454.1A83.1,83.1,0,0,0,922,452.32,88.06,88.06,0,0,0,937.85,447l-2.85-8a76,76,0,0,1-14.1,4.46,74.41,74.41,0,0,1-16.24,1.43,43.12,43.12,0,0,1-15.53-2.32,23.36,23.36,0,0,1-9.82-7,27.14,27.14,0,0,1-4.81-11.06,63.1,63.1,0,0,1-1.43-14.82v-63h60.5v-8.93h-60.5V300.09h-8.93l-1.42,37.65H828.27v8h34.27v63a85.77,85.77,0,0,0,2,17.85,35.84,35.84,0,0,0,6.78,14.28,31.34,31.34,0,0,0,12.32,9.28A51.81,51.81,0,0,0,903.23,454.1Zm-134.57-9.28a42.29,42.29,0,0,1-17.84-3.57,41,41,0,0,1-13.74-10.35A46.13,46.13,0,0,1,728,415a56.87,56.87,0,0,1-3.39-20.35A57.83,57.83,0,0,1,728,374.15a48.86,48.86,0,0,1,9.11-16.06,41,41,0,0,1,13.74-10.35,46,46,0,0,1,35.69,0,41.6,41.6,0,0,1,13.92,10.35,48.66,48.66,0,0,1,9.1,16.06,57.39,57.39,0,0,1,3.39,20.52A56.44,56.44,0,0,1,809.53,415a46.11,46.11,0,0,1-9.1,15.88,41.6,41.6,0,0,1-13.92,10.35A42.31,42.31,0,0,1,768.66,444.82Zm0,9.28a56.71,56.71,0,0,0,21.24-3.92,55.09,55.09,0,0,0,17.85-11.6,58.54,58.54,0,0,0,12-17.85,77.18,77.18,0,0,0,0-50.69,58.1,58.1,0,0,0-12-18.91,55.09,55.09,0,0,0-17.85-11.6,59.33,59.33,0,0,0-42.47,0,55.09,55.09,0,0,0-17.85,11.6,57.94,57.94,0,0,0-12,18.91,77.18,77.18,0,0,0,0,50.69,58.36,58.36,0,0,0,12,17.85,55.09,55.09,0,0,0,17.85,11.6A56.69,56.69,0,0,0,768.66,454.1Zm-133.85-2V380.75a81.75,81.75,0,0,1,24.81-27.3,50.4,50.4,0,0,1,27.13-8.39,48.77,48.77,0,0,1,10.53,0,79.06,79.06,0,0,1,10.53,3l2.85-9.28a45,45,0,0,0-11.42-3.74,80.89,80.89,0,0,0-11.42-.9,56.45,56.45,0,0,0-30.7,8.57,79.2,79.2,0,0,0-22.31,22.84h0l-1.25-27.84h-9.45v114.4ZM541.48,375H512.56V304.55h28.92a117.68,117.68,0,0,1,20.7,1.6,39.27,39.27,0,0,1,14.63,5.71,27,27,0,0,1,8.93,10.53,40.46,40.46,0,0,1,2.85,16.42A32.48,32.48,0,0,1,577,366.65,61.14,61.14,0,0,1,541.48,375Zm-28.92,77.1V384.32h31.59A65.84,65.84,0,0,0,585,373.08a40.35,40.35,0,0,0,14.64-34.27,49.4,49.4,0,0,0-3.75-20.34A32.19,32.19,0,0,0,585,305.08a44,44,0,0,0-17.85-7.49,112.92,112.92,0,0,0-23.2-2.32H501V452.14Z"/></clipPath><clipPath id="clip-path-2" transform="translate(-206.81 -267.32)"><path class="cls-1" d="M1155.76,452.14V335.07h-77.63v21.59h50.32v95.48Zm-15.35-137.42a19.1,19.1,0,0,0,13.74-5.35,18.34,18.34,0,0,0,0-26.6,19.24,19.24,0,0,0-13.74-5.17,20,20,0,0,0-13.92,5.17,17.87,17.87,0,0,0-5.53,13.39,16.8,16.8,0,0,0,5.53,13.21,20,20,0,0,0,13.92,4.46Zm-146.34,119a29,29,0,0,1-14.81-3.57,12.11,12.11,0,0,1-6.07-11.42,16,16,0,0,1,2.5-8.57,21,21,0,0,1,8.74-7,65,65,0,0,1,16.24-6.07c7-1.25,15.71-2.32,26.06-3.21v24.63a86,86,0,0,1-16.24,10.35,37.3,37.3,0,0,1-16.42,3.93ZM985.68,455a55.24,55.24,0,0,0,23-5,93.62,93.62,0,0,0,20.53-12.32h0l2.14,14.46h22.84V382.36a50.87,50.87,0,0,0-12.67-37.3,50,50,0,0,0-37.12-12.85,86.78,86.78,0,0,0-28.73,5,154.43,154.43,0,0,0-24.28,11.06l9.82,17.85A149.09,149.09,0,0,1,980,357.37a52.19,52.19,0,0,1,19.45-3.57,28.58,28.58,0,0,1,20.7,6.25,25.11,25.11,0,0,1,7,16.42,253.67,253.67,0,0,0-35.69,4.64,106.65,106.65,0,0,0-25,8.57,35.59,35.59,0,0,0-14.1,12.67,32.44,32.44,0,0,0-4.64,17.84,35.77,35.77,0,0,0,2.85,13.92,31.78,31.78,0,0,0,8.21,10.71,34.55,34.55,0,0,0,12.32,7,42.78,42.78,0,0,0,14.63,2.32Z"/></clipPath></defs><circle class="cls-2" cx="51.3" cy="181.38" r="50.26"/><path d="M220.26,351.87a50.15,50.15,0,0,0,40.19,15.85c20.25-1.39,40.19,5.59,54.54,19.94l4.16,4.16c14.36,14.36,21.33,34.29,20,54.54a50.26,50.26,0,1,0,46.17-46.65,68.78,68.78,0,0,1-54-20l-4.16-4.15a68.81,68.81,0,0,1-20-54,50.25,50.25,0,1,0-86.84,30.33Z" transform="translate(-206.81 -267.32)"/><g id="Layer_1-2" data-name="Layer 1-2"><g class="cls-3"><rect x="294.15" y="27.41" width="437.42" height="160.08"/></g><g class="cls-4"><rect class="cls-5" x="739.43" y="9.2" width="214.16" height="178.29"/></g></g></svg>